<svg id="Layer_1" data-name="Layer 1" xmlns="http://www.w3.org/2000/svg" xmlns:xlink="http://www.w3.org/1999/xlink" viewBox="0 0 554.44 106"><defs><style>.cls-1{fill:#044a65;}.cls-2{fill:url(#linear-gradient);}.cls-3{fill:url(#linear-gradient-2);}.cls-4{fill:url(#linear-gradient-3);}.cls-5{fill:url(#linear-gradient-4);}</style><linearGradient id="linear-gradient" x1="51.5" y1="12.22" x2="70.94" y2="54.17" gradientUnits="userSpaceOnUse"><stop offset="0" stop-color="#fff" stop-opacity="0.5"/><stop offset="0.32" stop-color="#fff" stop-opacity="0.8"/><stop offset="1" stop-color="#fff" stop-opacity="0"/></linearGradient><linearGradient id="linear-gradient-2" x1="71.25" y1="2.35" x2="90.91" y2="44.79" xlink:href="#linear-gradient"/><linearGradient id="linear-gradient-3" x1="112.37" y1="-55.49" x2="252.8" y2="-55.49" gradientTransform="matrix(0.98, -0.17, 0.17, 0.71, -73.68, 119.86)" gradientUnits="userSpaceOnUse"><stop offset="0.27" stop-color="#fff" stop-opacity="0"/><stop offset="0.59" stop-color="#fff" stop-opacity="0.8"/><stop offset="0.99" stop-color="#fff" stop-opacity="0.5"/></linearGradient><linearGradient id="linear-gradient-4" x1="91.98" y1="21.73" x2="154.01" y2="21.73" gradientUnits="userSpaceOnUse"><stop offset="0.27" stop-color="#fff" stop-opacity="0"/><stop offset="0.59" stop-color="#fff" stop-opacity="0.8"/><stop offset="0.99" stop-color="#fff" stop-opacity="0.5"/></linearGradient></defs><title>Accuray2015_no-tag</title><path class="cls-1" d="M167.11,29.92C166,20.31,150.22,14.8,123.81,14.8a219.56,219.56,0,0,0-31.2,2.36c-.74.1-1.48.22-2.21.33l-2.06.32L93,23.5c9.72-.85,18.88-1.28,27.22-1.28,30.22,0,32.86,3.74,33.14,5.48.61,5.16-16.11,15.38-44.44,22.14L69.33,2.44H46.89l55.19,48.91L98.85,52,35.57,2.44H2.63L89.91,53.51a193.75,193.75,0,0,1-28.15,2.26c-22.9,0-28.64-5.09-28.89-7.06-.35-2.7,2.47-6.17,5-8.41L39.37,39,34,35.69c-3.58,2.69-11,9-10.43,14.86.95,9.64,16.89,15.13,43.3,15.13h0A219.56,219.56,0,0,0,98,63.32c2.24-.32,4.51-.69,6.79-1.09l28.1,16.44h0L117.12,59.73C142.43,53.86,168.63,43,167.11,29.92ZM110.55,61.15l2.11-.43L132.9,78.66Z"/><path class="cls-1" d="M545.2,69c1.92,0,2.69-.18,2.69-1.43s-1-1.27-1.91-1.27h-2.15V69h1.37m3.67,4.41h-1.24l-2.23-3.59h-1.57v3.59h-1.05V65.44h3.41a3.5,3.5,0,0,1,1.9.4,2,2,0,0,1,.89,1.7c0,1.56-1.09,2.21-2.48,2.24Zm2.39-4a5.72,5.72,0,1,0-5.69,6.13,5.83,5.83,0,0,0,5.69-6.13m-12.38,0a6.69,6.69,0,1,1,6.69,7.1,6.91,6.91,0,0,1-6.69-7.1"/><path class="cls-1" d="M244.78,60.76c-12.12,0-21.25,8.93-21.25,20.77,0,12.16,9.42,21,22.39,21,7.69,0,14.13-2.8,18.63-8.1l.26-.31-4.35-4.72-.34.33c-4.48,4.47-8.22,6.14-13.83,6.14-7.83,0-16.25-4.45-16.25-14.22,0-8.27,6.33-14.26,15.05-14.26,4.87,0,9.18,1.78,14,5.79l.3.25,4.91-4.19-.37-.35a27.18,27.18,0,0,0-19.11-8.11"/><path class="cls-1" d="M301,60.76c-12.11,0-21.24,8.93-21.24,20.77,0,12.16,9.41,21,22.39,21,7.69,0,14.12-2.8,18.62-8.1l.27-.31-4.36-4.72-.34.33c-4.47,4.47-8.22,6.14-13.83,6.14-7.83,0-16.25-4.45-16.25-14.22,0-8.27,6.33-14.26,15-14.26,4.87,0,9.18,1.78,14,5.79l.3.25,4.91-4.19-.36-.35A27.19,27.19,0,0,0,301,60.76"/><path class="cls-1" d="M338.84,61.64V86.33c0,3.31.17,6.3,2.27,9.4,4.05,6,11.88,6.62,15.06,6.62,4,0,11.28-.76,15.14-5.82,2.66-3.43,2.86-6.39,2.86-10.2V61.64h-6.5V86.33c0,6.77-3,9.41-10.61,9.41-4.62,0-7.76-.89-9.6-2.73s-2.06-4-2.06-6.68V61.64h-6.56"/><path class="cls-1" d="M418.81,78.83H401.88V68.25h16.93c2.81,0,6.17.88,6.17,5.08,0,4.78-3.87,5.5-6.17,5.5m4.67,22.74h7.45l-8.16-16.5.16,0c5.55-1.6,8.61-5.64,8.61-11.38,0-7.26-5-11.94-12.73-11.94H395.27v39.87h6.61V85.43h13.76Z"/><path class="cls-1" d="M470.81,82.06H459.92l5.44-12Zm8.56,19.51h7.38l-17.85-40H462l-18.13,40h7.18l5.8-12.85h16.89Z"/><path class="cls-1" d="M194.86,82.06H184l5.45-12Zm8.55,19.51h7.38l-17.85-40h-6.86l-18.12,40h7.17l5.8-12.85h16.9Z"/><polygon class="cls-1" points="507.83 101.57 514.39 101.57 514.36 84.48 530.91 61.7 522.73 61.7 511.22 77.87 499.55 61.7 491.58 61.7 507.8 84.3 507.83 101.57"/><polygon class="cls-2" points="92.34 53.02 21.26 5.57 35.64 5.57 97.41 52.67 92.34 53.02"/><polygon class="cls-3" points="104.13 50.89 58.48 5.57 68.59 5.57 107.78 50.44 104.13 50.89"/><path class="cls-4" d="M163.51,30.72c0-1-.76-1.89-1.53-2.73.55,10.39-21.58,22.68-64.66,30.88C63,65.4,32.78,59.39,25.49,51.46a5.26,5.26,0,0,0,0,2.2C28,63.81,60.85,66.91,99,60.58S163.13,42,163.51,30.72Z"/><path class="cls-5" d="M92,20.53s44.61-4.6,60.48,2.29c0,0,2.76,1.61.92,1.61,0,0-6.9-6.43-59.33-2.29Z"/></svg>