<?xml version="1.0" encoding="utf-8"?>
<!-- Generator: Adobe Illustrator 22.0.1, SVG Export Plug-In . SVG Version: 6.00 Build 0)  -->
<svg version="1.1" id="Layer_1" xmlns="http://www.w3.org/2000/svg" xmlns:xlink="http://www.w3.org/1999/xlink" x="0px" y="0px"
	 viewBox="0 0 214.4 52.4" style="enable-background:new 0 0 214.4 52.4;" xml:space="preserve">
<style type="text/css">
	.st0{fill:#53565A;}
	.st1{fill:url(#SVGID_1_);}
</style>
<g>
	<path class="st0" d="M171.2,13c-0.2,0.5-0.5,1-0.9,1.5c-0.4,0.5-0.8,0.9-1.3,1.1c-0.5,0.3-1.1,0.4-1.7,0.4h-8.8V5.1h8.8
		c0.1,0,0.3,0,0.6,0.1c0.2,0.1,0.4,0.1,0.6,0.2c0.6,0.2,1,0.5,1.4,0.8c0.4,0.3,0.7,0.7,0.9,1.1c0.2,0.4,0.4,0.8,0.5,1.3
		c0.1,0.4,0.1,1.7,0.1,2C171.5,11.1,171.4,12.5,171.2,13 M176.2,7.7c-0.3-1-0.7-1.9-1.2-2.7c-0.6-0.9-1.3-1.6-2.1-2.4
		c-0.9-0.7-1.9-1.3-3.2-1.8c-0.1-0.1-0.4-0.1-0.6-0.2c-0.3-0.1-0.5-0.1-0.8-0.2c-0.3-0.1-0.5-0.1-0.7-0.1c-0.2,0-0.4,0-0.4,0h-13.9
		v29.4h5.2v-8.8h9c0.7-0.1,1.5-0.3,1.5-0.3c1.3-0.3,2.5-0.8,3.5-1.6c1-0.7,1.8-1.5,2.4-2.5c0.6-0.9,1.1-1.9,1.4-2.9
		c0.3-1,0.5-2,0.5-3C176.5,9.6,176.4,8.6,176.2,7.7"/>
	<path class="st0" d="M18,13c-0.2,0.5-0.5,1-0.9,1.5c-0.4,0.5-0.8,0.9-1.3,1.1c-0.5,0.3-1.1,0.4-1.7,0.4H5.3V5.1h8.8
		c0.1,0,0.3,0,0.6,0.1c0.2,0.1,0.4,0.1,0.6,0.2c0.6,0.2,1,0.5,1.4,0.8c0.4,0.3,0.7,0.7,0.9,1.1c0.2,0.4,0.4,0.8,0.5,1.3
		c0.1,0.4,0.1,1.7,0.1,2C18.3,11.1,18.2,12.5,18,13 M23,7.7c-0.3-1-0.7-1.9-1.2-2.7c-0.6-0.9-1.3-1.6-2.1-2.4
		c-0.9-0.7-1.9-1.3-3.2-1.8c-0.1-0.1-0.4-0.1-0.6-0.2c-0.3-0.1-0.5-0.1-0.8-0.2c-0.3-0.1-0.5-0.1-0.7-0.1c-0.2,0-0.4,0-0.4,0H0v29.4
		h5.2v-8.8h9c0.7-0.1,1.5-0.3,1.5-0.3c1.3-0.3,2.5-0.8,3.5-1.6c1-0.7,1.8-1.5,2.4-2.5c0.6-0.9,1.1-1.9,1.4-2.9c0.3-1,0.5-2,0.5-3
		C23.4,9.6,23.3,8.6,23,7.7"/>
	<path class="st0" d="M47.4,13c-0.2,0.5-0.5,1-0.9,1.5c-0.4,0.5-0.8,0.8-1.3,1.1c-0.5,0.3-1,0.4-1.6,0.4h-9.5V5.1h9.5
		c0.1,0,0.3,0,0.6,0.1c0.3,0.1,0.5,0.2,0.8,0.3c1,0.5,1.6,1.1,2.1,1.8c0.4,0.8,0.6,1.6,0.6,2.4C47.7,10.2,47.6,12.4,47.4,13
		 M47.3,19.5c1-0.6,1.8-1.2,2.5-1.9c0.7-0.7,1.2-1.5,1.6-2.3c0.4-0.8,0.7-1.6,0.9-2.4c0.2-0.8,0.3-1.6,0.3-2.3
		c0-0.9-0.1-1.9-0.4-2.9c-0.3-1-0.7-1.9-1.2-2.7c-0.5-0.9-1.3-1.6-2.1-2.4c-0.9-0.7-1.9-1.3-3.2-1.8c-0.1-0.1-0.4-0.1-0.6-0.2
		c-0.3-0.1-0.5-0.1-0.8-0.2c-0.3-0.1-0.5-0.1-0.7-0.1c-0.2,0-0.4,0-0.4,0H29.1v29.4h5.2v-8.8H42l6.3,8.8h6L47.3,19.5z"/>
	<path class="st0" d="M115.2,18.5c-0.4,1.1-1,2-1.7,2.8c-0.7,0.8-1.5,1.4-2.3,1.9c-0.8,0.5-1.7,0.9-2.6,1.1
		c-0.9,0.2-1.7,0.4-2.5,0.4c-1.3,0-2.5-0.3-3.7-0.8c-1.2-0.5-2.2-1.2-3.1-2.1c-0.9-0.9-1.6-1.9-2.2-3.1c-0.5-1.2-0.8-2.5-0.8-3.9
		c0-1.3,0.3-2.5,0.8-3.7c0.5-1.2,1.2-2.2,2.1-3.1c0.9-0.9,1.9-1.6,3.1-2.1c1.2-0.5,2.5-0.8,3.9-0.8c1.7,0,3.4,0.5,4.9,1.4
		c1.5,0.9,2.9,2.3,4,4.1c0.8-0.5,1.5-1,2.1-1.5c0.7-0.4,1.3-0.9,1.9-1.4c-0.8-1.4-1.7-2.6-2.7-3.6c-1-1-2.1-1.8-3.3-2.4
		c-1.2-0.6-2.3-1-3.5-1.3c-1.2-0.3-2.3-0.4-3.4-0.4c-2.1,0-4.1,0.4-5.9,1.2c-1.8,0.8-3.4,1.9-4.7,3.2c-1.3,1.3-2.4,2.9-3.1,4.7
		c-0.8,1.8-1.1,3.7-1.1,5.7c0,2,0.4,3.9,1.1,5.7c0.8,1.8,1.8,3.4,3.1,4.7c1.3,1.4,2.9,2.4,4.7,3.2c1.8,0.8,3.8,1.2,5.9,1.2
		c1.2,0,2.5-0.2,3.8-0.5c1.3-0.3,2.6-0.9,3.8-1.6c1.2-0.7,2.4-1.7,3.4-2.8c1.1-1.1,2-2.5,2.7-4.1L115.2,18.5z"/>
	<polygon class="st0" points="146.3,24.6 129.9,24.6 129.9,16.8 141.7,16.8 141.7,11.6 129.9,11.6 129.9,5.1 146.3,5.1 146.3,0.2 
		125,0.2 125,29.6 146.3,29.6 	"/>
	<polygon class="st0" points="204.3,0.2 178.8,0.2 178.8,5.1 188.8,5.1 188.8,29.6 193.7,29.6 193.7,5 204.3,5 	"/>
	<g>
		<path class="st0" d="M72,0.1c1.9,6.7,9.8,12.9,9.8,21c0,3.1-1.7,5.9-4.4,7.6c5.3-2.3,9.1-7.5,9.1-13.7C86.6,6.8,80.1,0.2,72,0.1z"
			/>
		<path class="st0" d="M61.6,21c0-8.1,8-14.2,9.8-21c-4.6,0.1-8.6,2.2-11.3,5.5c-2.1,2.5-3.3,5.8-3.3,9.3c0,6.2,3.7,11.4,9.1,13.7
			C63.4,26.9,61.6,24.2,61.6,21z"/>
	</g>
	<path class="st0" d="M73.7,51v-4.4h3.9c2.2,0,3.3,0.8,3.3,2.1v0c0,1.4-1.2,2.2-3,2.2H73.7z M73.7,45.4v-4.2h3.8
		c1.8,0,2.7,0.8,2.7,2v0c0,1.4-1.2,2.2-2.8,2.2H73.7z M72.4,52.2h5.5c2.7,0,4.5-1.3,4.5-3.4v0c0-1.7-1.2-2.5-2.6-3
		c1-0.4,2-1.3,2-2.9v0c0-0.8-0.3-1.4-0.8-2c-0.7-0.7-1.8-1.1-3.2-1.1h-5.3V52.2z"/>
	<path class="st0" d="M96.5,51.3c-2.4,0-4.2-2-4.2-4.4v0c0-2.4,1.7-4.3,4.1-4.3c2.4,0,4.2,2,4.2,4.4v0
		C100.6,49.4,98.9,51.3,96.5,51.3 M96.4,52.4c3.2,0,5.4-2.6,5.4-5.5v0c0-2.9-2.2-5.4-5.4-5.4c-3.2,0-5.4,2.6-5.4,5.5v0
		C91.1,49.9,93.2,52.4,96.4,52.4 M86.2,52.2h1.2V41.7h-1.2V52.2z"/>
	<path class="st0" d="M107.1,46.2v-5h3.8c2,0,3.2,0.9,3.2,2.4v0c0,1.6-1.3,2.5-3.2,2.5H107.1z M105.7,52.2h1.4v-4.8h3.5h0l3.6,4.8
		h1.7l-3.8-5c1.9-0.4,3.4-1.6,3.4-3.6v0c0-1-0.4-1.8-1-2.4c-0.8-0.8-2-1.2-3.5-1.2h-5.3V52.2z"/>
	<path class="st0" d="M190.5,52.4c2.1,0,3.6-1.2,3.6-3v0c0-1.6-1.1-2.5-3.4-3c-2.3-0.5-2.9-1.1-2.9-2.1v0c0-1,0.9-1.7,2.2-1.7
		c1.1,0,2.1,0.3,3,1.1l0.7-0.9c-1.1-0.9-2.2-1.3-3.7-1.3c-2,0-3.5,1.2-3.5,2.9v0c0,1.7,1.1,2.5,3.5,3c2.2,0.5,2.7,1,2.7,2v0
		c0,1-0.9,1.8-2.4,1.8c-1.5,0-2.5-0.5-3.6-1.5l-0.7,0.9C187.5,51.8,188.9,52.4,190.5,52.4 M179.6,52.4c1.9,0,3.1-0.7,4.2-1.9
		l-0.8-0.8c-1,1-2,1.5-3.4,1.5c-2.3,0-4.1-1.9-4.1-4.4v0c0-2.4,1.8-4.3,4.1-4.3c1.4,0,2.4,0.6,3.3,1.4l0.8-0.9
		c-1.1-1-2.2-1.7-4.1-1.7c-3.1,0-5.3,2.5-5.3,5.5v0C174.3,50,176.5,52.4,179.6,52.4 M169.4,52.2h1.2V41.7h-1.2V52.2z M161.2,52.2
		h1.2v-9.5h3.5v-1.1h-8.3v1.1h3.5V52.2z M150.2,51.3c-2.4,0-4.2-2-4.2-4.4v0c0-2.4,1.7-4.3,4.1-4.3c2.4,0,4.2,2,4.2,4.4v0
		C154.3,49.4,152.6,51.3,150.2,51.3 M150.2,52.4c3.2,0,5.4-2.6,5.4-5.5v0c0-2.9-2.2-5.4-5.4-5.4c-3.2,0-5.4,2.6-5.4,5.5v0
		C144.8,49.9,146.9,52.4,150.2,52.4 M134.5,51.1v-3.7h3.3c1.8,0,2.8,0.7,2.8,1.8v0c0,1.2-1,1.9-2.6,1.9H134.5z M134.5,46.4v-3.6h3.2
		c1.5,0,2.3,0.7,2.3,1.7v0c0,1.2-1,1.9-2.4,1.9H134.5z M133.3,52.2h4.7c2.3,0,3.8-1.1,3.8-2.9v0c0-1.4-1-2.2-2.3-2.6
		c0.8-0.4,1.7-1.1,1.7-2.4v0c0-0.7-0.2-1.2-0.7-1.7c-0.6-0.6-1.6-0.9-2.8-0.9h-4.5V52.2z M124.3,51.3c-2.4,0-4.2-2-4.2-4.4v0
		c0-2.4,1.7-4.3,4.1-4.3c2.4,0,4.2,2,4.2,4.4v0C128.5,49.4,126.7,51.3,124.3,51.3 M124.3,52.4c3.2,0,5.4-2.6,5.4-5.5v0
		c0-2.9-2.2-5.4-5.4-5.4c-3.2,0-5.4,2.6-5.4,5.5v0C118.9,49.9,121.1,52.4,124.3,52.4"/>
	<linearGradient id="SVGID_1_" gradientUnits="userSpaceOnUse" x1="64.2576" y1="8.606" x2="77.8689" y2="26.0277">
		<stop  offset="0.2844" style="stop-color:#0076CF;stop-opacity:0.3"/>
		<stop  offset="0.7379" style="stop-color:#0076CF"/>
	</linearGradient>
	<path class="st1" d="M64,19.5c0.9-6.3,7-11.2,7.8-16.7h0c0.8,5.5,6.9,10.4,7.8,16.7c-1.1,1.6-4.2,2.7-7.8,2.7
		C68.1,22.1,65.1,21,64,19.5z M65.6,25.7c1.4,1.8,3.7,2.9,6.2,2.9h0c2.5,0,4.7-1.1,6.2-2.9c-1.5,0.8-3.7,1.4-6.2,1.4
		C69.3,27.1,67.1,26.6,65.6,25.7z M79.6,20.8c-1,1.6-4.1,2.9-7.9,2.9c-3.8,0-6.9-1.2-7.9-2.9c0,0.1,0,0.2,0,0.3
		c0,0.7,0.1,1.5,0.3,2.1c1.2,1.4,4.2,2.4,7.6,2.4c3.4,0,6.3-1,7.6-2.4c0.2-0.7,0.3-1.4,0.3-2.1C79.6,20.9,79.6,20.9,79.6,20.8z"/>
	<path class="st0" d="M213,1c0.6,0.6,1,1.4,1,2.3c0,0.9-0.3,1.7-1,2.3c-0.6,0.6-1.4,1-2.3,1c-0.9,0-1.7-0.3-2.3-1
		c-0.6-0.6-0.9-1.4-0.9-2.3c0-0.9,0.3-1.7,1-2.3c0.6-0.6,1.4-1,2.3-1C211.6,0,212.3,0.3,213,1z M212.5,5.1c0.5-0.5,0.7-1.1,0.7-1.8
		c0-0.7-0.3-1.3-0.8-1.8c-0.5-0.5-1.1-0.8-1.8-0.8c-0.7,0-1.3,0.3-1.8,0.8c-0.5,0.5-0.8,1.1-0.8,1.8c0,0.7,0.3,1.3,0.8,1.8
		c0.5,0.5,1.1,0.8,1.8,0.8C211.4,5.9,212,5.6,212.5,5.1l-1.1,0L210.7,4h-0.4v1.1h-1V1.4h1.5c0.6,0,1,0.1,1.2,0.3
		c0.2,0.2,0.4,0.5,0.4,1c0,0.5-0.2,0.9-0.7,1.1L212.5,5.1z M211.2,3c0.1-0.1,0.1-0.2,0.1-0.4c0-0.2,0-0.3-0.1-0.3
		c-0.1-0.1-0.2-0.1-0.5-0.1h-0.5v0.9h0.5C211,3.1,211.1,3.1,211.2,3z"/>
</g>
</svg>
